<svg width="205" height="303" viewBox="0 0 205 303" fill="none" xmlns="http://www.w3.org/2000/svg">
<rect x="29" y="47" width="148" height="208" fill="#292929"/>
<g clip-path="url(#clip0_833_454)">
<path d="M175.795 24.9643C179.004 29.0902 182.056 33.3457 185.488 37.2837C187.032 39.0542 188.402 40.8009 189.407 42.9234C192.546 49.6164 191.487 52.2099 182.994 55.8409C186.116 50.8311 181.256 46.385 184.319 41.8648C184.979 40.8935 183.951 40.0308 183.092 39.5068C181.659 38.6255 180.178 38.9192 178.853 39.7317C177.385 40.6474 176.163 42.0236 176.733 43.8391C177.819 47.3113 177.353 50.7199 176.815 54.1604C176.211 58.011 174.457 60.1732 170.045 60.5384C165.856 60.8878 161.831 62.6186 157.493 62.8859C154.878 63.0473 153.503 62.6212 152.724 60.0621C150.705 53.3611 145.973 48.0099 143.363 41.5499C141.961 38.0777 138.885 35.6588 135.678 33.3219C134.698 35.6138 135.808 37.117 136.396 38.517C140.125 47.3695 139.921 56.9233 141.534 66.1463C141.903 68.2635 141.688 69.8514 138.641 69.997C133.429 70.2616 128.763 73.2654 123.177 72.7414C119.468 72.392 114.645 80.9746 115.822 84.8544C116.444 86.916 118.771 86.6302 120.254 87.53C121.844 88.4906 122.949 87.4956 123.286 86.1406C125.09 78.868 131.142 78.4313 136.799 78.045C143.834 77.5633 149.913 73.4268 156.974 73.2813C157.549 73.2813 158.262 72.7996 158.657 72.3285C165.938 63.6613 176.383 62.3539 186.51 60.3399C190.191 59.6095 193.508 57.802 197.456 57.6273C200.26 57.4976 202.443 54.6606 203.116 51.8712C204.47 46.2527 204.897 40.4516 205 34.669C205.016 33.6104 205 31.9854 203.659 31.8028C201.99 31.5752 201.805 33.2319 201.301 34.4493C200.443 36.503 202.268 39.8984 199.73 40.5733C197.539 41.1582 196.447 37.7865 194.656 36.3866C188.887 31.8875 183.492 26.8592 176.82 23.7284L175.795 24.9643Z" fill="#929292"/>
<path d="M3.77322 20.6691C4.23162 19.4702 4.22632 17.7818 6.09436 18.0994C7.63119 18.364 8.16114 19.7825 8.11609 21.1349C8.0154 24.1042 7.75573 27.0736 7.46691 30.0324C6.96877 35.1242 6.29839 40.1923 7.83522 45.255C8.26183 46.655 8.03394 48.5313 9.59727 49.0924C11.7647 49.8705 11.627 47.4225 12.4351 46.4168C14.8569 43.3945 16.3037 39.7344 16.9741 36.0611C18.8978 25.5148 23.3334 15.5164 23.7679 4.65783C23.858 2.45066 24.2899 -0.0740954 27.1012 6.29986e-06C29.9126 0.074108 29.4515 2.73118 29.5443 4.61019C29.9364 12.5311 27.4245 19.9095 25.22 27.3488C23.291 33.8486 21.4309 40.3854 21.7038 47.2557C21.9688 53.8323 26.1659 58.8421 32.4749 58.6515C40.8559 58.3869 48.8872 59.9536 57.0536 61.208C67.4245 62.7959 71.672 59.9827 74.4833 49.9604C75.7629 45.3577 77.3892 40.8582 79.3482 36.5004C79.8781 35.3518 80.0954 33.4675 81.7064 33.8354C83.7653 34.3038 82.9492 36.1167 82.6497 37.5405C80.8188 46.3162 80.5088 55.2296 80.0663 64.1483C79.8728 68.0704 81.6932 69.481 85.1246 69.9706C90.2995 70.7169 95.3339 69.3433 100.437 69.1237C103.453 68.9914 104.494 67.6972 104.147 64.7623C103.166 56.574 104.221 48.2191 102.027 40.1129C101.449 37.9957 101.521 35.4868 104.369 34.9734C106.852 34.5261 107.838 36.5163 108.233 38.5911C110.151 48.6478 112.101 58.7044 113.143 68.9146C113.686 74.2473 112.454 78.786 107.006 81.2023C104.793 82.1841 105.151 84.2034 105.53 85.9315C105.546 85.9951 105.564 86.0533 105.583 86.1141L99.2767 85.823C99.6741 84.6506 99.5416 83.2771 99.176 81.803C98.4579 78.8786 96.2136 79.0189 93.8209 78.5981C84.433 76.9467 74.8358 75.7611 65.84 72.8076C58.9163 70.5343 52.133 68.3536 44.9073 67.2076C34.1601 65.5033 23.4871 63.3146 12.8167 61.163C4.27666 59.4402 0.310043 54.7109 0.042422 46.0013C-0.219899 37.3552 0.641261 28.8467 3.77322 20.6691Z" fill="#969696"/>
<path d="M163.516 136.03C165.988 132.83 167.332 129.355 167.581 125.576C167.734 123.236 167.499 119.489 165.016 119.709C162.819 119.897 159.452 121.561 158.956 125.205C158.596 127.815 159.041 130.326 160.84 131.941C162.12 133.089 162.326 134.638 163.516 136.03Z" fill="#AEACA2"/>
<path d="M108.71 87.5141C113.641 85.5848 117.594 88.2578 121.163 90.6052C124.989 93.1273 128.45 94.6676 133.087 93.3973C134.462 93.0188 138.786 91.7829 136.084 96.6048C134.87 98.7749 137.157 99.6403 138.85 100.379C142.952 102.168 146.415 105.264 151.121 105.91C149.237 106.918 147.472 107.328 145.837 108.027C144.367 108.665 143.453 109.88 144.033 111.618C144.417 112.785 145.318 113.894 146.471 113.802C149.202 113.585 146.913 111.949 147.099 110.981C147.44 109.184 149.102 109.57 150.278 109.316C152.34 108.869 154.547 109.594 156.555 108.342C159.968 106.225 162.999 106.73 164.74 110.488C166.264 113.778 163.166 118.817 159.377 119.764C155.912 120.627 153.309 118.679 152.785 114.516C152.591 112.997 152.785 111.46 151.063 110.811C150.559 110.621 149.844 110.991 149.226 111.102C149.862 112.799 148.299 114.569 149.353 116.207C149.791 116.885 150.811 117.282 151.044 117.978C152.104 121.138 157.377 122.136 156.32 125.653C154.899 130.379 157.803 132.745 159.764 135.876C160.39 136.863 161.974 137.52 161.166 139.227C160.04 141.608 152.674 144.046 150.138 143.374C144.163 141.786 138.124 139.311 131.391 142.315C133.839 144.996 137.133 145.189 139.322 147.044C138.702 148.897 136.267 147.155 136.182 148.947C136.108 150.506 137.931 150.702 138.831 151.578C139.732 152.454 141.664 152.496 141.669 154.333C139.989 155.23 138.341 152.986 136.9 154.637C137.999 158.837 141.431 160.48 144.883 162.137C147.862 163.564 150.832 165.019 153.755 166.559C155.079 167.258 156.457 168.24 156.063 169.984C155.721 171.485 154.149 170.839 153.119 171.162C151.812 171.567 150.562 172.146 149.316 172.638C150.231 175.24 153.052 176.015 153.649 178.752C151.529 177.971 150.766 175.396 148.241 176.124C148.506 178.792 150.935 179.541 152.067 181.274C153.198 183.007 153.177 185.024 151.889 186.263C149.852 188.224 149.213 185.469 148.246 184.503C146.847 183.113 145.877 181.295 144.473 179.914C143.068 178.532 142.247 175.82 138.537 176.772C143.514 181.877 146.852 187.581 151.624 192.193C144.494 189.16 141.391 181.56 135.331 177.476C134.335 178.479 134.581 179.149 135.019 179.641C139.409 184.564 143.283 189.962 148.646 193.99C149.706 194.784 152.258 195.314 151.277 196.867C150.04 198.831 148.521 196.338 147.08 195.962C144.666 195.337 143.389 192.183 139.025 192.752C146.709 200.202 156.701 202.581 163.506 209.525C161.309 210.766 158.635 207.109 157.146 210.491C155.845 213.45 154.197 212.159 152.377 211.238C150.7 210.391 149.197 208.546 145.286 210.248C153.148 212.577 152.422 219.074 156.007 224.189C152.069 222.797 152.141 218.462 147.658 218.158L151.036 224.171C147.038 222.377 146.627 217.465 143.105 215.152C143.461 219.595 145.53 223.163 148.725 226.042C150.095 227.275 151.508 227.124 151.789 224.835C152.146 225.515 153.378 226.59 152.785 226.788C147.403 228.606 151.762 230.986 152.997 233.974C150.588 232.796 149.086 231.946 147.493 231.327C146.147 230.798 144.491 229.861 143.331 230.231C136.176 232.51 136.214 232.613 132.862 226.053C132.332 225.036 131.672 223.316 130.538 224.393C128.063 226.749 126.749 224.335 125.04 223.549C123.278 222.739 121.751 220.736 119.701 221.458C117.512 222.228 120.262 224.84 118.201 226.45C117.064 222.744 112.538 223.247 111.153 221.554C107.138 216.634 101.288 217.621 96.6163 215.292C95.7684 214.869 94.017 214.887 93.9507 214.498C93.3413 210.864 90.0053 212.317 88.5294 212.262C86.1685 212.169 87.8219 215.287 86.7992 216.875C86.1049 215.52 86.6084 212.796 84.4489 213.246C82.4245 213.667 84.3243 215.739 84.0064 217.055C83.5983 218.732 84.0064 220.715 82.3476 221.644C79.6211 221.09 81.4096 218.224 79.6635 217.237C75.673 222.056 75.7817 221.937 70.5246 217.237C68.5162 215.437 67.345 211.378 65.5962 211.51C60.2968 211.91 58.4711 208.334 56.1765 205.249C54.2554 205.391 54.0567 208.054 51.7303 207.604C52.9624 201.84 52.5861 196.01 52.8431 190.219C53.1717 183.007 55.0265 175.87 56.1076 168.687C56.399 166.745 57.2019 163.995 56.2666 162.905C52.602 158.633 55.9247 155.18 56.8813 151.435C57.4934 149.034 58.2061 146.658 58.7361 144.239C59.0964 142.617 59.3826 140.761 57.716 139.713C55.2968 138.189 56.0784 136.273 56.9767 134.54C58.7891 131.041 61.5713 127.868 62.5941 124.184C63.6168 120.5 65.4584 118.965 68.858 117.904C71.7727 116.991 73.6434 114.678 73.222 111.06C71.1314 111.285 71.0042 113.114 70.0689 114.135C69.5257 114.728 69.0912 115.562 68.0843 115.019C67.3053 114.598 66.5925 113.794 66.9316 113.032C68.6751 109.094 65.6651 108.779 63.222 107.786C56.7435 105.14 50.6571 101.863 45.8188 96.6339C44.4701 95.1757 43.8739 93.3576 44.3005 91.6056C44.8145 89.5069 46.9502 90.0759 48.5215 89.9939C55.62 89.6207 62.6895 89.0544 69.7191 87.9005C72.5967 87.4268 75.8903 86.7255 78.132 89.3296C80.5485 92.1349 83.9375 93.0956 87.0138 94.4665C91.8336 96.6154 92.5013 90.9069 95.4213 89.319C95.8506 89.0861 96.1685 88.6256 96.6084 88.4324C98.0896 87.7814 98.8951 86.8843 99.2581 85.8177C101.322 85.1387 103.564 85.2481 105.551 86.1247C105.991 87.5273 107.528 87.9746 108.71 87.5141ZM154.261 208.154C152.552 204.259 149.663 203.319 146.738 202.112C147.181 205.103 148.082 205.852 154.261 208.154ZM150.286 168.745C145.729 164.628 141.574 162.899 136.028 165.26C139.817 169.479 144.505 169.307 150.284 168.745H150.286ZM144.322 174.449C144.526 174.033 144.73 173.615 144.931 173.2L133.569 167.716C133.352 168.158 133.135 168.603 132.92 169.039C136.108 172.13 139.865 174.001 144.322 174.449ZM65.7764 127.839C68.956 126.068 71.0758 123.543 72.1118 119.15C68.071 121.426 66.9343 124.631 65.7764 127.839ZM117.366 129.882C116.248 128.654 114.963 127.765 112.727 128.746C113.932 130.668 115.196 131.491 117.001 131.041C117.22 130.985 117.515 130.043 117.366 129.882V129.882ZM110.824 143.027C110.845 143.493 112.782 145.811 114.756 145.639C115.62 145.292 116.433 145.081 117.122 144.665C118.54 143.805 121.645 143.673 120.745 141.735C120.151 140.455 117.255 138.591 114.722 140.148C113.288 141.016 110.721 140.738 110.824 143.027V143.027ZM122.684 130.038C122.345 128.244 120.673 127.638 119.319 126.862C118.741 126.529 118.074 126.862 118.074 127.905C118.532 129.493 119.928 130.345 121.383 131.001C121.942 131.245 122.83 130.813 122.684 130.038V130.038ZM123.098 127.185C127.533 128.212 133.249 124.962 135.866 119.359L123.098 127.185ZM143.683 117.142C142.26 117.872 139.385 116.334 139.258 118.753C139.147 120.807 141.619 119.719 142.854 119.563C144.481 119.357 147.297 120.381 147.432 118.1C147.557 116.035 145.077 117.464 143.683 117.142V117.142ZM154.96 132.433C152.52 131.184 150.829 132.068 149.595 132.809C144.295 135.985 138.659 133.994 133.233 133.968C129.96 133.952 128.031 135.479 125.758 137.006C135.503 136.485 145.742 139.496 154.96 132.433V132.433ZM131.407 183.087C128.598 179.252 125.085 176.389 120.315 175.221C123.052 178.911 127.311 180.962 129.918 184.699C130.085 184.934 130.888 184.987 131.208 184.799C131.897 184.397 131.815 183.64 131.407 183.087V183.087ZM130.782 189.505C131.147 187.843 129.587 187.861 128.567 187.62C127.721 187.419 126.669 186.826 126.073 188.197C126.227 189.547 127.398 189.917 128.394 190.314C129.322 190.688 130.525 190.68 130.782 189.505V189.505ZM129.542 192.077C129.624 190.928 128.622 190.862 127.833 190.83C127.043 190.799 126.145 190.666 125.896 191.783C126.055 192.821 126.887 193.032 127.692 193.128C128.498 193.223 129.465 193.194 129.542 192.077V192.077ZM128.05 208.662C124.968 203.073 119.618 199.543 115.596 194.819C117.406 201.554 122.965 204.891 128.05 208.662V208.662ZM116.2 204.246C115.111 200.445 112.008 198.442 109.157 196.213C109.997 200.305 112.711 202.642 116.2 204.246ZM100.639 165.607C99.3535 164.725 98.5347 161.573 96.7409 163.468C95.5008 164.792 98.1611 166.313 99.2925 167.512C100.599 168.899 102.26 169.95 103.797 171.17C104.401 170.741 104.897 170.558 105.103 170.206C105.514 169.508 104.984 168.965 104.494 168.563C103.251 167.523 101.977 166.512 100.639 165.601V165.607ZM101.182 140.529C99.629 139.576 98.1267 139.803 96.3805 141.143C98.177 142.651 99.6847 142.704 101.198 141.733C101.396 141.611 101.378 140.648 101.182 140.529ZM108.246 141.627C108.397 141.447 108.132 140.542 107.944 140.502C106.404 140.171 105.164 140.563 104.565 142.251C106.108 143.503 107.258 142.789 108.246 141.627ZM108.535 133.081C109.359 133.206 110.588 133.314 110.424 132.269C110.021 129.728 107.562 130.729 106.012 130.173C105.098 129.845 103.943 129.765 103.543 131.009C103.211 132.036 105.599 133.013 108.535 133.081V133.081ZM110.594 204.801C105.294 199.993 98.8288 197.74 94.637 192.506C95.4239 197.693 104.414 204.574 110.594 204.809V204.801ZM90.0026 162.119C92.6524 167.851 97.2496 171.519 103.219 174.899C103.304 171.614 101.335 171.283 100.167 170.27C97.0694 167.586 93.6539 165.186 92.2787 161.031C91.9793 160.129 91.717 158.837 90.4452 159.258C88.805 159.798 89.5178 161.092 90.0026 162.119ZM87.9438 129.223C88.2088 129.157 88.6142 128.222 88.4738 128.032C87.2629 126.335 85.4981 126.521 83.1081 126.616C84.4595 129.125 86.0042 129.694 87.9332 129.223H87.9438ZM87.0164 124.494C87.5755 124.398 88.1108 123.501 87.4483 122.969C85.991 121.805 84.3031 121.54 82.0668 122.376C83.5082 124.602 85.2332 124.795 87.0058 124.494H87.0164ZM81.505 119.071C82.9385 119.928 84.38 120.084 86.3116 118.56C84.1918 117.287 82.7106 116.933 81.1897 117.954C81.0705 118.033 81.2401 118.92 81.4944 119.071H81.505ZM68.2565 98.7829C68.2724 98.8305 68.2936 98.8755 68.3068 98.9205L68.4632 98.767C68.4287 98.8014 68.3068 98.9205 68.3095 98.9231L68.5745 98.9496C69.9603 101.453 74.2793 102.422 75.7287 100.45C75.9592 100.135 76.0572 99.4551 75.8691 99.1746C75.7184 98.9988 75.5275 98.8618 75.3126 98.7752C75.0976 98.6886 74.865 98.6549 74.6343 98.677C72.6432 99.1016 70.5951 99.1911 68.5745 98.9417C68.54 98.8781 68.5056 98.8146 68.4764 98.7511L68.2618 98.7749C66.9104 95.0513 61.9899 92.7595 57.398 94.3209C61.5156 95.5383 63.9295 99.2751 68.2406 98.7829H68.2565ZM75.8532 93.2411C71.5633 89.3031 65.7843 89.8324 60.1484 91.206C69.2872 91.55 76.9714 93.8525 80.6836 103.414C79.2051 105.095 75.8267 104.01 73.6672 107.244C79.584 107.402 84.3508 103.967 89.743 105.685C84.1547 102.266 80.3418 97.3749 75.8373 93.2411H75.8532ZM88.8633 132.962C87.5384 132.491 86.5395 129.241 85.106 131.578C83.956 133.452 86.8362 134.27 88.1902 135.27C88.9852 135.86 90.045 135.982 91.0466 135.124C90.8797 133.447 89.6847 133.256 88.8633 132.962ZM89.8145 141.264C89.8145 144.371 90.8267 147.071 90.522 150.024C90.2862 152.332 92.5517 152.898 94.2316 153.264C96.4706 153.748 95.461 151.514 96.044 150.577C100.678 143.117 91.8018 144.448 89.8145 141.264V141.264ZM96.5898 96.3322C95.6174 97.0283 96.1447 98.2483 96.9396 98.8967C99.1812 100.728 99.3588 103.435 99.9285 105.902C100.334 107.664 100.098 109.528 102.602 109.798C104.865 110.041 105.543 108.091 105.991 106.807C107.051 103.732 102.976 105.942 102.65 103.597C104.444 102.959 106.828 103.237 108.214 101.464C109.385 99.9659 113.898 101.292 112.393 99.3625C110.514 96.9568 110.302 91.992 105.845 92.299C102.443 92.5292 99.372 94.3447 96.5898 96.3322Z" fill="#AEACA2"/>
<path d="M157.022 196.867C157.348 196.812 157.846 196.56 158.082 196.714C158.567 197.015 158.911 197.545 159.314 197.979C158.927 198.09 158.5 198.36 158.158 198.278C157.597 198.137 156.881 197.957 157.022 196.867Z" fill="#AEACA2"/>
<path d="M106.887 98.3092C106.913 100.289 105.159 100.834 103.397 100.741C101.635 100.649 100.268 99.995 99.8093 98.0207C100.443 96.1682 102.067 95.9035 103.686 95.93C105.225 95.9644 106.865 96.708 106.887 98.3092Z" fill="#AEACA2"/>
</g>
<path d="M30.25 282.445C30.25 282.38 30.263 282.257 30.2891 282.074C30.3151 281.879 30.3411 281.677 30.3672 281.469C30.4062 281.247 30.4323 281.039 30.4453 280.844C30.4714 280.648 30.4844 280.518 30.4844 280.453C30.5365 279.828 30.6732 279.19 30.8945 278.539C31.1289 277.888 31.4219 277.263 31.7734 276.664C32.125 276.052 32.5286 275.492 32.9844 274.984C33.4531 274.477 33.9609 274.047 34.5078 273.695C34.5208 273.669 34.5859 273.624 34.7031 273.559C34.8333 273.493 34.9701 273.428 35.1133 273.363C35.2565 273.298 35.3932 273.233 35.5234 273.168C35.6536 273.103 35.7318 273.057 35.7578 273.031C35.849 272.992 35.9661 272.927 36.1094 272.836C36.2656 272.732 36.4219 272.634 36.5781 272.543C36.7344 272.439 36.8906 272.348 37.0469 272.27C37.2031 272.191 37.3464 272.152 37.4766 272.152C37.5938 272.152 37.6849 272.165 37.75 272.191C37.8281 272.217 37.9193 272.257 38.0234 272.309C38.2448 272.283 38.4531 272.263 38.6484 272.25C38.8568 272.224 39.0651 272.211 39.2734 272.211C39.4948 272.211 39.7031 272.224 39.8984 272.25C40.0938 272.263 40.3021 272.283 40.5234 272.309C40.5234 272.309 40.5495 272.322 40.6016 272.348C40.6536 272.361 40.7122 272.38 40.7773 272.406C40.8424 272.432 40.9076 272.458 40.9727 272.484C41.0378 272.51 41.0898 272.53 41.1289 272.543C41.168 272.556 41.2461 272.595 41.3633 272.66C41.4805 272.712 41.6107 272.777 41.7539 272.855C41.8971 272.934 42.0339 273.005 42.1641 273.07C42.2943 273.122 42.3854 273.155 42.4375 273.168C42.4375 273.181 42.4831 273.201 42.5742 273.227C42.6654 273.253 42.724 273.266 42.75 273.266L43.5312 273.695L45.2891 275.297C45.3411 275.362 45.4193 275.538 45.5234 275.824C45.6406 276.098 45.7513 276.404 45.8555 276.742C45.9727 277.068 46.0703 277.38 46.1484 277.68C46.2396 277.979 46.2852 278.174 46.2852 278.266C46.2852 278.448 46.2331 278.598 46.1289 278.715C46.0247 278.819 45.901 278.91 45.7578 278.988C45.6146 279.053 45.4583 279.105 45.2891 279.145C45.1328 279.171 44.9961 279.19 44.8789 279.203H44.8008C44.6706 279.216 44.4557 279.229 44.1562 279.242C43.8698 279.255 43.5638 279.268 43.2383 279.281C42.9258 279.281 42.6263 279.288 42.3398 279.301C42.0664 279.301 41.8776 279.301 41.7734 279.301C41.6302 279.366 41.5 279.405 41.3828 279.418C41.2786 279.431 41.168 279.438 41.0508 279.438L39.6641 279.301C39.4036 279.301 39.1302 279.346 38.8438 279.438C38.5703 279.529 38.3034 279.574 38.043 279.574C37.8737 279.574 37.7044 279.516 37.5352 279.398C37.3789 279.268 37.2031 279.203 37.0078 279.203C36.9818 279.203 36.9102 279.236 36.793 279.301C36.6888 279.353 36.6107 279.379 36.5586 279.379L35.0742 279.281C34.8659 279.281 34.6706 279.32 34.4883 279.398C34.306 279.477 34.0977 279.613 33.8633 279.809C33.8242 280.147 33.7982 280.447 33.7852 280.707C33.7721 280.954 33.7656 281.234 33.7656 281.547C33.7656 281.82 33.7786 282.042 33.8047 282.211C33.8438 282.38 33.8958 282.543 33.9609 282.699C34.026 282.842 34.1042 282.992 34.1953 283.148C34.2865 283.292 34.3906 283.474 34.5078 283.695L34.7031 284.066C35.0417 284.809 35.4779 285.408 36.0117 285.863C36.5456 286.319 37.2357 286.677 38.082 286.938C38.082 287.003 38.1732 287.068 38.3555 287.133C38.5508 287.185 38.7656 287.224 39 287.25C39.2734 287.302 39.5859 287.335 39.9375 287.348C40.3672 287.348 40.8099 287.322 41.2656 287.27C41.7214 287.217 42.1641 287.133 42.5938 287.016C43.0234 286.898 43.4271 286.742 43.8047 286.547C44.1953 286.352 44.5273 286.111 44.8008 285.824H45.1133C45.2695 285.824 45.3737 285.85 45.4258 285.902C45.4909 285.941 45.556 286.065 45.6211 286.273C45.582 286.651 45.5234 286.99 45.4453 287.289C45.3802 287.576 45.2826 287.836 45.1523 288.07C45.0352 288.305 44.8789 288.526 44.6836 288.734C44.4883 288.93 44.2344 289.132 43.9219 289.34C43.8177 289.418 43.7201 289.477 43.6289 289.516C43.5378 289.542 43.4531 289.568 43.375 289.594C43.2969 289.62 43.2122 289.659 43.1211 289.711C43.043 289.763 42.9518 289.854 42.8477 289.984L40.7578 291.039L40.5234 291L39.0586 291.234C37.9648 291.234 36.9818 291.078 36.1094 290.766C35.237 290.453 34.4557 290.01 33.7656 289.438C33.0885 288.852 32.4961 288.155 31.9883 287.348C31.4935 286.54 31.0703 285.648 30.7188 284.672C30.6016 284.32 30.5299 283.962 30.5039 283.598C30.4779 283.22 30.3932 282.836 30.25 282.445ZM34.0977 277.113C34.0977 277.178 34.1042 277.276 34.1172 277.406C34.1432 277.536 34.1758 277.667 34.2148 277.797C34.2539 277.927 34.2995 278.044 34.3516 278.148C34.4036 278.253 34.4557 278.311 34.5078 278.324H35.1133L37.7109 277.914L39.3711 278.051C39.6576 278.051 39.9115 278.025 40.1328 277.973C40.3672 277.921 40.6211 277.862 40.8945 277.797C41.1419 277.758 41.3503 277.725 41.5195 277.699C41.7018 277.66 41.8451 277.595 41.9492 277.504C42.0664 277.413 42.151 277.296 42.2031 277.152C42.2552 276.996 42.2812 276.781 42.2812 276.508C42.2812 276.052 42.1576 275.655 41.9102 275.316C41.6628 274.978 41.3503 274.698 40.9727 274.477C40.6081 274.242 40.2044 274.073 39.7617 273.969C39.332 273.852 38.9284 273.793 38.5508 273.793C38.4596 273.793 38.3294 273.819 38.1602 273.871C37.9909 273.91 37.7956 273.969 37.5742 274.047C37.3659 274.112 37.1445 274.19 36.9102 274.281C36.6888 274.359 36.4805 274.451 36.2852 274.555C36.1029 274.646 35.9401 274.737 35.7969 274.828C35.6536 274.906 35.5625 274.978 35.5234 275.043L35.1133 275.922C35.0352 276.013 34.9375 276.098 34.8203 276.176C34.7031 276.254 34.5859 276.339 34.4688 276.43C34.3646 276.521 34.2734 276.625 34.1953 276.742C34.1302 276.846 34.0977 276.97 34.0977 277.113ZM51.4008 300.219C51.4008 300.102 51.4008 299.997 51.4008 299.906C51.4138 299.815 51.4529 299.698 51.518 299.555C51.5831 299.255 51.7198 299.008 51.9281 298.812C52.1495 298.617 52.4815 298.454 52.9242 298.324C52.9633 298.311 53.0284 298.292 53.1195 298.266C53.2107 298.253 53.3018 298.24 53.393 298.227C53.4841 298.214 53.5622 298.201 53.6273 298.188C53.7055 298.188 53.751 298.188 53.7641 298.188L54.4867 298.324L54.9164 298.188C54.9555 298.188 55.0141 298.181 55.0922 298.168C55.1703 298.168 55.281 298.168 55.4242 298.168C55.6586 298.168 55.8148 298.161 55.893 298.148C55.9841 298.135 56.0557 298.096 56.1078 298.031C56.212 297.875 56.2966 297.738 56.3617 297.621C56.4268 297.504 56.4789 297.387 56.518 297.27C56.5701 297.165 56.6091 297.048 56.6352 296.918C56.6742 296.801 56.7133 296.651 56.7523 296.469C56.7523 296.456 56.7589 296.41 56.7719 296.332C56.7849 296.267 56.7979 296.189 56.8109 296.098C56.824 296.007 56.837 295.922 56.85 295.844C56.863 295.766 56.876 295.707 56.8891 295.668C56.8891 295.616 56.9216 295.518 56.9867 295.375C57.0518 295.232 57.1234 295.082 57.2016 294.926C57.2797 294.77 57.3513 294.62 57.4164 294.477C57.4945 294.346 57.5531 294.249 57.5922 294.184L57.4555 293.363C57.5987 293.129 57.7094 292.914 57.7875 292.719C57.8656 292.523 57.9047 292.289 57.9047 292.016C57.9047 291.977 57.8982 291.924 57.8852 291.859C57.8721 291.807 57.8656 291.768 57.8656 291.742C57.8656 291.638 57.8591 291.508 57.8461 291.352C57.8461 291.208 57.8396 291.072 57.8266 290.941C57.8135 290.798 57.8005 290.674 57.7875 290.57C57.7745 290.466 57.768 290.408 57.768 290.395C57.768 290.355 57.7419 290.277 57.6898 290.16C57.6378 290.03 57.5792 289.893 57.5141 289.75C57.462 289.607 57.4034 289.47 57.3383 289.34C57.2862 289.21 57.2602 289.118 57.2602 289.066C57.2471 289.04 57.2211 288.962 57.182 288.832C57.143 288.702 57.0974 288.565 57.0453 288.422C57.0063 288.266 56.9672 288.122 56.9281 287.992C56.9021 287.862 56.8891 287.784 56.8891 287.758L56.2641 286.703C56.2641 286.69 56.2576 286.638 56.2445 286.547C56.2315 286.456 56.2185 286.358 56.2055 286.254C56.1924 286.15 56.1729 286.052 56.1469 285.961C56.1339 285.857 56.1208 285.792 56.1078 285.766C56.1078 285.648 56.0948 285.505 56.0688 285.336C56.0427 285.154 56.0232 285.062 56.0102 285.062C55.9971 285.023 55.9581 284.971 55.893 284.906C55.8409 284.841 55.7758 284.776 55.6977 284.711C55.6326 284.646 55.5674 284.587 55.5023 284.535C55.4372 284.483 55.4047 284.451 55.4047 284.438L55.1313 283.734L54.4867 282.816L53.7641 280.961C53.751 280.935 53.712 280.863 53.6469 280.746C53.5948 280.616 53.5688 280.544 53.5688 280.531C53.5427 280.505 53.5036 280.473 53.4516 280.434C53.3995 280.382 53.3734 280.342 53.3734 280.316C53.3604 280.303 53.3474 280.245 53.3344 280.141C53.3214 280.036 53.3083 279.926 53.2953 279.809C53.2953 279.691 53.2888 279.587 53.2758 279.496C53.2758 279.392 53.2758 279.327 53.2758 279.301C53.2237 279.092 53.1456 278.871 53.0414 278.637C52.9372 278.389 52.8266 278.148 52.7094 277.914C52.5922 277.667 52.4685 277.426 52.3383 277.191C52.2211 276.957 52.1169 276.742 52.0258 276.547C52.0258 276.521 52.0128 276.456 51.9867 276.352C51.9607 276.234 51.9346 276.163 51.9086 276.137C51.9086 276.098 51.876 276.046 51.8109 275.98C51.7589 275.902 51.7003 275.85 51.6352 275.824C51.2576 275.525 50.8539 275.29 50.4242 275.121C50.0076 274.952 49.5714 274.757 49.1156 274.535L48.9398 274.281C48.8878 274.177 48.8096 274.099 48.7055 274.047C48.5883 273.995 48.5297 273.923 48.5297 273.832C48.5297 273.376 48.6143 273.083 48.7836 272.953C48.9398 272.823 49.1417 272.758 49.3891 272.758C49.5844 272.758 49.7732 272.79 49.9555 272.855C50.1508 272.921 50.3526 273.012 50.5609 273.129C50.6 273.129 50.6781 273.122 50.7953 273.109C50.9125 273.096 51.0492 273.09 51.2055 273.09C51.3487 273.09 51.4854 273.096 51.6156 273.109C51.7589 273.122 51.8565 273.129 51.9086 273.129L52.4164 273.324H52.9242C52.9372 273.324 52.9893 273.318 53.0805 273.305C53.1846 273.279 53.2888 273.259 53.393 273.246C53.5102 273.22 53.6143 273.201 53.7055 273.188C53.7966 273.161 53.8552 273.142 53.8813 273.129C53.9594 273.09 54.0635 273.057 54.1938 273.031C54.337 272.992 54.4737 272.96 54.6039 272.934C54.7341 272.908 54.8448 272.888 54.9359 272.875C55.0401 272.862 55.1052 272.855 55.1313 272.855H56.0102L56.5375 272.758C56.6547 272.758 56.7914 272.784 56.9477 272.836C57.1169 272.875 57.2667 272.934 57.3969 273.012C57.5401 273.09 57.6573 273.181 57.7484 273.285C57.8526 273.376 57.9047 273.467 57.9047 273.559C57.9047 273.663 57.8917 273.819 57.8656 274.027C57.8396 274.223 57.781 274.372 57.6898 274.477C57.4815 274.698 57.2602 274.854 57.0258 274.945C56.8044 275.036 56.6417 275.095 56.5375 275.121L56.2055 275.219C56.1143 275.258 56.0102 275.271 55.893 275.258C55.7888 275.232 55.6911 275.264 55.6 275.355C55.613 275.46 55.6391 275.59 55.6781 275.746C55.7172 275.889 55.7628 276.033 55.8148 276.176C55.8669 276.319 55.9125 276.449 55.9516 276.566C55.9906 276.671 56.0102 276.729 56.0102 276.742C56.0232 276.872 56.0557 276.99 56.1078 277.094C56.1729 277.198 56.238 277.302 56.3031 277.406C56.3682 277.51 56.4333 277.615 56.4984 277.719C56.5635 277.823 56.6156 277.934 56.6547 278.051L56.8891 279.301C56.9151 279.483 56.9802 279.659 57.0844 279.828C57.1885 279.984 57.2992 280.141 57.4164 280.297C57.5336 280.44 57.6508 280.596 57.768 280.766C57.8852 280.922 57.9633 281.091 58.0023 281.273C58.0023 281.286 58.0023 281.345 58.0023 281.449C58.0154 281.553 58.0219 281.664 58.0219 281.781C58.0349 281.898 58.0479 282.009 58.0609 282.113C58.074 282.217 58.087 282.276 58.1 282.289C58.1 282.302 58.1391 282.367 58.2172 282.484C58.2953 282.602 58.3474 282.667 58.3734 282.68C58.3865 282.706 58.419 282.777 58.4711 282.895C58.5232 283.012 58.5688 283.09 58.6078 283.129L58.9008 283.734C58.9268 283.826 58.9724 283.943 59.0375 284.086C59.1026 284.216 59.1612 284.281 59.2133 284.281C59.3044 284.424 59.4021 284.529 59.5063 284.594C59.6234 284.646 59.7276 284.672 59.8188 284.672C59.8839 284.672 59.975 284.646 60.0922 284.594C60.2094 284.529 60.3005 284.424 60.3656 284.281C60.4047 284.229 60.4503 284.177 60.5023 284.125C60.6065 284.021 60.6846 283.949 60.7367 283.91L60.7758 283.793C60.7888 283.767 60.8018 283.741 60.8148 283.715C60.8279 283.689 60.8344 283.663 60.8344 283.637C60.9906 283.246 61.1404 282.849 61.2836 282.445C61.4268 282.042 61.5701 281.618 61.7133 281.176C61.7133 281.137 61.7263 281.052 61.7523 280.922C61.7784 280.779 61.824 280.681 61.8891 280.629C61.8891 280.616 61.8891 280.577 61.8891 280.512C61.9021 280.447 61.9086 280.375 61.9086 280.297C61.9216 280.206 61.9346 280.128 61.9477 280.062C61.9607 279.984 61.9737 279.939 61.9867 279.926L62.2797 279.105C62.2927 279.092 62.3057 279.053 62.3188 278.988C62.3318 278.923 62.3448 278.858 62.3578 278.793C62.3708 278.715 62.3773 278.65 62.3773 278.598C62.3904 278.533 62.3969 278.487 62.3969 278.461C62.4359 278.331 62.4945 278.201 62.5727 278.07C62.6638 277.94 62.7484 277.816 62.8266 277.699C62.9047 277.582 62.9763 277.465 63.0414 277.348C63.1065 277.217 63.1391 277.081 63.1391 276.938C63.113 276.885 63.074 276.814 63.0219 276.723C62.9828 276.618 62.9503 276.56 62.9242 276.547V275.727C62.9242 275.701 62.8721 275.629 62.768 275.512C62.6768 275.395 62.6052 275.323 62.5531 275.297C62.501 275.271 62.4229 275.238 62.3188 275.199C62.2276 275.147 62.1234 275.102 62.0063 275.062C61.8891 275.023 61.7719 274.991 61.6547 274.965C61.5505 274.926 61.4659 274.9 61.4008 274.887C61.2706 274.887 61.1729 274.867 61.1078 274.828C61.0557 274.776 61.0232 274.75 61.0102 274.75L60.3656 274.281C60.3005 274.099 60.268 273.949 60.268 273.832C60.268 273.663 60.3005 273.513 60.3656 273.383C60.4307 273.24 60.5089 273.096 60.6 272.953C60.7693 272.862 60.9255 272.803 61.0688 272.777C61.225 272.738 61.3617 272.719 61.4789 272.719C61.5961 272.706 61.7068 272.693 61.8109 272.68C61.9151 272.667 62.0063 272.634 62.0844 272.582L62.5531 272.523C62.5792 272.523 62.6508 272.53 62.768 272.543C62.8982 272.543 63.0349 272.549 63.1781 272.562C63.3214 272.576 63.4516 272.589 63.5688 272.602C63.699 272.602 63.7771 272.608 63.8031 272.621L64.4477 272.758C64.7471 272.758 65.0141 272.712 65.2484 272.621C65.4958 272.53 65.7693 272.439 66.0688 272.348H66.518C66.518 272.322 66.5766 272.302 66.6938 272.289C66.8109 272.263 66.8956 272.25 66.9477 272.25C66.9477 272.224 66.9607 272.211 66.9867 272.211C67.0258 272.211 67.0583 272.211 67.0844 272.211C67.2016 272.211 67.3578 272.237 67.5531 272.289C67.7615 272.341 67.9633 272.413 68.1586 272.504C68.3539 272.595 68.5232 272.699 68.6664 272.816C68.8096 272.934 68.8813 273.057 68.8813 273.188C68.8813 273.344 68.8357 273.454 68.7445 273.52C68.6534 273.585 68.5622 273.669 68.4711 273.773L67.7289 274.379C67.5727 274.522 67.4164 274.633 67.2602 274.711C67.1039 274.776 66.9411 274.828 66.7719 274.867C66.6156 274.906 66.4464 274.939 66.2641 274.965C66.0818 274.991 65.893 275.03 65.6977 275.082C65.4763 275.421 65.2875 275.766 65.1313 276.117C64.988 276.469 64.8318 276.814 64.6625 277.152C64.6625 277.217 64.6495 277.302 64.6234 277.406C64.5974 277.497 64.5714 277.556 64.5453 277.582C64.5453 277.595 64.5388 277.634 64.5258 277.699C64.5258 277.751 64.5193 277.816 64.5063 277.895C64.4932 277.96 64.4802 278.025 64.4672 278.09C64.4672 278.155 64.4607 278.188 64.4477 278.188C64.4477 278.214 64.4216 278.259 64.3695 278.324C64.3305 278.389 64.2849 278.467 64.2328 278.559C64.1807 278.637 64.1286 278.715 64.0766 278.793C64.0375 278.858 64.018 278.897 64.018 278.91V279.926C64.0049 279.939 63.9789 279.984 63.9398 280.062C63.9008 280.128 63.8552 280.206 63.8031 280.297C63.7641 280.375 63.7185 280.447 63.6664 280.512C63.6273 280.577 63.5948 280.616 63.5688 280.629C63.3865 280.967 63.1716 281.332 62.9242 281.723C62.6768 282.113 62.501 282.517 62.3969 282.934V283.637C62.3969 283.663 62.3708 283.734 62.3188 283.852C62.2797 283.956 62.2471 284.008 62.2211 284.008C62.0779 284.281 61.9867 284.535 61.9477 284.77C61.9086 285.004 61.8305 285.232 61.7133 285.453L61.1469 286.605C61.0948 286.866 61.0622 287.133 61.0492 287.406C61.0362 287.68 61.0297 287.96 61.0297 288.246C61.0297 288.52 61.0232 288.793 61.0102 289.066C60.9971 289.34 60.9711 289.613 60.932 289.887C60.906 290.212 60.8018 290.531 60.6195 290.844C60.4372 291.156 60.2745 291.456 60.1313 291.742C60.1052 291.768 60.0661 291.801 60.0141 291.84C59.975 291.892 59.9555 291.924 59.9555 291.938C59.9034 292.016 59.8513 292.139 59.7992 292.309C59.7732 292.387 59.7471 292.471 59.7211 292.562C59.7081 292.641 59.6951 292.764 59.682 292.934C59.669 293.103 59.656 293.279 59.643 293.461C59.643 293.643 59.6365 293.812 59.6234 293.969C59.6234 294.138 59.6234 294.255 59.6234 294.32C59.4932 294.424 59.3956 294.574 59.3305 294.77C59.2784 294.965 59.2328 295.18 59.1938 295.414C59.1677 295.648 59.1417 295.876 59.1156 296.098C59.1026 296.332 59.0701 296.527 59.018 296.684L58.4711 297.387C58.4451 297.413 58.419 297.497 58.393 297.641C58.3799 297.797 58.3734 297.895 58.3734 297.934C58.3344 297.973 58.2888 298.038 58.2367 298.129C58.1846 298.207 58.1195 298.318 58.0414 298.461C57.9633 298.604 57.8721 298.799 57.768 299.047C57.768 299.06 57.7549 299.099 57.7289 299.164C57.7029 299.242 57.6703 299.32 57.6313 299.398C57.5922 299.49 57.5531 299.574 57.5141 299.652C57.488 299.73 57.4685 299.776 57.4555 299.789C57.4034 299.971 57.3253 300.089 57.2211 300.141C57.1299 300.193 57.0193 300.277 56.8891 300.395C56.8109 300.46 56.7523 300.512 56.7133 300.551C56.6742 300.603 56.6417 300.648 56.6156 300.688C56.5896 300.727 56.557 300.766 56.518 300.805C56.4919 300.857 56.4464 300.922 56.3813 301C56.199 301.234 55.9906 301.371 55.7563 301.41C55.5219 301.462 55.2745 301.527 55.0141 301.605L54.6234 301.918C54.4672 301.97 54.3174 301.996 54.1742 301.996C54.031 302.009 53.8943 302.016 53.7641 302.016C53.5167 302.016 53.2563 301.97 52.9828 301.879C52.7094 301.801 52.4555 301.684 52.2211 301.527C51.9867 301.371 51.7914 301.182 51.6352 300.961C51.4789 300.74 51.4008 300.492 51.4008 300.219ZM70.9891 282.445C70.9891 282.38 71.0021 282.257 71.0281 282.074C71.0542 281.879 71.0802 281.677 71.1063 281.469C71.1453 281.247 71.1714 281.039 71.1844 280.844C71.2104 280.648 71.2234 280.518 71.2234 280.453C71.2755 279.828 71.4122 279.19 71.6336 278.539C71.868 277.888 72.1609 277.263 72.5125 276.664C72.8641 276.052 73.2677 275.492 73.7234 274.984C74.1922 274.477 74.7 274.047 75.2469 273.695C75.2599 273.669 75.325 273.624 75.4422 273.559C75.5724 273.493 75.7091 273.428 75.8523 273.363C75.9956 273.298 76.1323 273.233 76.2625 273.168C76.3927 273.103 76.4708 273.057 76.4969 273.031C76.588 272.992 76.7052 272.927 76.8484 272.836C77.0047 272.732 77.1609 272.634 77.3172 272.543C77.4734 272.439 77.6297 272.348 77.7859 272.27C77.9422 272.191 78.0854 272.152 78.2156 272.152C78.3328 272.152 78.424 272.165 78.4891 272.191C78.5672 272.217 78.6583 272.257 78.7625 272.309C78.9839 272.283 79.1922 272.263 79.3875 272.25C79.5958 272.224 79.8042 272.211 80.0125 272.211C80.2339 272.211 80.4422 272.224 80.6375 272.25C80.8328 272.263 81.0411 272.283 81.2625 272.309C81.2625 272.309 81.2885 272.322 81.3406 272.348C81.3927 272.361 81.4513 272.38 81.5164 272.406C81.5815 272.432 81.6466 272.458 81.7117 272.484C81.7768 272.51 81.8289 272.53 81.868 272.543C81.907 272.556 81.9852 272.595 82.1023 272.66C82.2195 272.712 82.3497 272.777 82.493 272.855C82.6362 272.934 82.7729 273.005 82.9031 273.07C83.0333 273.122 83.1245 273.155 83.1766 273.168C83.1766 273.181 83.2221 273.201 83.3133 273.227C83.4044 273.253 83.463 273.266 83.4891 273.266L84.2703 273.695L86.0281 275.297C86.0802 275.362 86.1583 275.538 86.2625 275.824C86.3797 276.098 86.4904 276.404 86.5945 276.742C86.7117 277.068 86.8094 277.38 86.8875 277.68C86.9786 277.979 87.0242 278.174 87.0242 278.266C87.0242 278.448 86.9721 278.598 86.868 278.715C86.7638 278.819 86.6401 278.91 86.4969 278.988C86.3536 279.053 86.1974 279.105 86.0281 279.145C85.8719 279.171 85.7352 279.19 85.618 279.203H85.5398C85.4096 279.216 85.1948 279.229 84.8953 279.242C84.6089 279.255 84.3029 279.268 83.9773 279.281C83.6648 279.281 83.3654 279.288 83.0789 279.301C82.8055 279.301 82.6167 279.301 82.5125 279.301C82.3693 279.366 82.2391 279.405 82.1219 279.418C82.0177 279.431 81.907 279.438 81.7898 279.438L80.4031 279.301C80.1427 279.301 79.8693 279.346 79.5828 279.438C79.3094 279.529 79.0424 279.574 78.782 279.574C78.6128 279.574 78.4435 279.516 78.2742 279.398C78.118 279.268 77.9422 279.203 77.7469 279.203C77.7208 279.203 77.6492 279.236 77.532 279.301C77.4279 279.353 77.3497 279.379 77.2977 279.379L75.8133 279.281C75.6049 279.281 75.4096 279.32 75.2273 279.398C75.0451 279.477 74.8367 279.613 74.6023 279.809C74.5633 280.147 74.5372 280.447 74.5242 280.707C74.5112 280.954 74.5047 281.234 74.5047 281.547C74.5047 281.82 74.5177 282.042 74.5438 282.211C74.5828 282.38 74.6349 282.543 74.7 282.699C74.7651 282.842 74.8432 282.992 74.9344 283.148C75.0255 283.292 75.1297 283.474 75.2469 283.695L75.4422 284.066C75.7807 284.809 76.2169 285.408 76.7508 285.863C77.2846 286.319 77.9747 286.677 78.8211 286.938C78.8211 287.003 78.9122 287.068 79.0945 287.133C79.2898 287.185 79.5047 287.224 79.7391 287.25C80.0125 287.302 80.325 287.335 80.6766 287.348C81.1063 287.348 81.549 287.322 82.0047 287.27C82.4604 287.217 82.9031 287.133 83.3328 287.016C83.7625 286.898 84.1661 286.742 84.5438 286.547C84.9344 286.352 85.2664 286.111 85.5398 285.824H85.8523C86.0086 285.824 86.1128 285.85 86.1648 285.902C86.2299 285.941 86.2951 286.065 86.3602 286.273C86.3211 286.651 86.2625 286.99 86.1844 287.289C86.1193 287.576 86.0216 287.836 85.8914 288.07C85.7742 288.305 85.618 288.526 85.4227 288.734C85.2273 288.93 84.9734 289.132 84.6609 289.34C84.5568 289.418 84.4591 289.477 84.368 289.516C84.2768 289.542 84.1922 289.568 84.1141 289.594C84.0359 289.62 83.9513 289.659 83.8602 289.711C83.782 289.763 83.6909 289.854 83.5867 289.984L81.4969 291.039L81.2625 291L79.7977 291.234C78.7039 291.234 77.7208 291.078 76.8484 290.766C75.976 290.453 75.1948 290.01 74.5047 289.438C73.8276 288.852 73.2352 288.155 72.7273 287.348C72.2326 286.54 71.8094 285.648 71.4578 284.672C71.3406 284.32 71.269 283.962 71.243 283.598C71.2169 283.22 71.1323 282.836 70.9891 282.445ZM74.8367 277.113C74.8367 277.178 74.8432 277.276 74.8563 277.406C74.8823 277.536 74.9148 277.667 74.9539 277.797C74.993 277.927 75.0385 278.044 75.0906 278.148C75.1427 278.253 75.1948 278.311 75.2469 278.324H75.8523L78.45 277.914L80.1102 278.051C80.3966 278.051 80.6505 278.025 80.8719 277.973C81.1063 277.921 81.3602 277.862 81.6336 277.797C81.881 277.758 82.0893 277.725 82.2586 277.699C82.4409 277.66 82.5841 277.595 82.6883 277.504C82.8055 277.413 82.8901 277.296 82.9422 277.152C82.9943 276.996 83.0203 276.781 83.0203 276.508C83.0203 276.052 82.8966 275.655 82.6492 275.316C82.4018 274.978 82.0893 274.698 81.7117 274.477C81.3471 274.242 80.9435 274.073 80.5008 273.969C80.0711 273.852 79.6674 273.793 79.2898 273.793C79.1987 273.793 79.0685 273.819 78.8992 273.871C78.7299 273.91 78.5346 273.969 78.3133 274.047C78.1049 274.112 77.8836 274.19 77.6492 274.281C77.4279 274.359 77.2195 274.451 77.0242 274.555C76.8419 274.646 76.6792 274.737 76.5359 274.828C76.3927 274.906 76.3016 274.978 76.2625 275.043L75.8523 275.922C75.7742 276.013 75.6766 276.098 75.5594 276.176C75.4422 276.254 75.325 276.339 75.2078 276.43C75.1036 276.521 75.0125 276.625 74.9344 276.742C74.8693 276.846 74.8367 276.97 74.8367 277.113ZM102.921 289.809C102.57 289.913 102.224 290.03 101.886 290.16C101.547 290.29 101.209 290.414 100.87 290.531C100.532 290.648 100.187 290.753 99.8352 290.844C99.4836 290.922 99.1255 290.961 98.7609 290.961H98.5266C98.2922 290.961 98.0122 290.915 97.6867 290.824C97.3742 290.733 97.0812 290.609 96.8078 290.453C95.7922 290.31 94.9328 289.984 94.2297 289.477C93.5266 288.969 92.9211 288.363 92.4133 287.66C92.2961 287.478 92.2049 287.276 92.1398 287.055C92.0878 286.82 92.0292 286.592 91.9641 286.371L91.2023 284.926C91.2023 284.9 91.1958 284.854 91.1828 284.789C91.1698 284.724 91.1503 284.613 91.1242 284.457C91.1112 284.288 91.0982 284.053 91.0852 283.754C91.0721 283.441 91.0656 283.031 91.0656 282.523C91.1828 282.38 91.2544 282.25 91.2805 282.133C91.3195 282.003 91.3391 281.859 91.3391 281.703L91.3 280.961L91.3391 280.668L91.5734 280.043C91.6125 279.913 91.6451 279.743 91.6711 279.535C91.6971 279.327 91.7167 279.112 91.7297 278.891C91.7557 278.669 91.7818 278.461 91.8078 278.266C91.8469 278.057 91.899 277.888 91.9641 277.758C92.0292 277.602 92.1138 277.504 92.218 277.465C92.3352 277.426 92.4589 277.354 92.5891 277.25L93.0969 276.645C93.4745 276.098 93.8456 275.655 94.2102 275.316C94.5878 274.978 94.9849 274.704 95.4016 274.496C95.8312 274.275 96.2935 274.099 96.7883 273.969C97.2961 273.826 97.8625 273.682 98.4875 273.539C98.8651 273.435 99.2427 273.331 99.6203 273.227C100.011 273.109 100.402 273.051 100.792 273.051C100.961 273.051 101.111 273.096 101.241 273.188C101.385 273.279 101.515 273.324 101.632 273.324C101.736 273.324 101.892 273.311 102.101 273.285C102.309 273.246 102.524 273.201 102.745 273.148C102.967 273.083 103.162 273.012 103.331 272.934C103.514 272.855 103.624 272.771 103.663 272.68C103.872 272.003 104.021 271.293 104.112 270.551C104.217 269.809 104.269 269.079 104.269 268.363C104.269 268.181 104.249 267.973 104.21 267.738C104.184 267.491 104.171 267.25 104.171 267.016C104.171 266.872 104.184 266.742 104.21 266.625C104.249 266.495 104.269 266.352 104.269 266.195C104.269 266 104.223 265.844 104.132 265.727C104.054 265.596 103.95 265.486 103.82 265.395C103.689 265.29 103.54 265.193 103.37 265.102C103.201 264.997 103.038 264.88 102.882 264.75C102.791 264.685 102.713 264.62 102.648 264.555C102.583 264.49 102.511 264.424 102.433 264.359C102.368 264.294 102.283 264.223 102.179 264.145C102.088 264.066 101.964 263.975 101.808 263.871C101.756 263.78 101.697 263.689 101.632 263.598C101.567 263.493 101.534 263.389 101.534 263.285C101.534 263.168 101.573 263.057 101.652 262.953C101.73 262.849 101.814 262.771 101.905 262.719C102.101 262.589 102.335 262.478 102.609 262.387C102.882 262.283 103.155 262.191 103.429 262.113C103.715 262.035 103.976 261.97 104.21 261.918C104.458 261.866 104.646 261.82 104.777 261.781H107.042C107.264 261.781 107.465 261.833 107.648 261.938C107.83 262.042 107.986 262.172 108.116 262.328C108.26 262.484 108.37 262.66 108.448 262.855C108.527 263.051 108.566 263.24 108.566 263.422C108.566 263.995 108.501 264.535 108.37 265.043C108.253 265.538 108.195 266.033 108.195 266.527V268.285L107.687 270.082C107.687 270.382 107.726 270.668 107.804 270.941C107.882 271.215 107.921 271.469 107.921 271.703C107.921 271.977 107.862 272.23 107.745 272.465C107.641 272.686 107.589 272.927 107.589 273.188L107.452 274.848L107.687 276.195L107.452 278.266L107.687 282.016L107.277 284.652V286.098C107.277 286.449 107.296 286.814 107.335 287.191C107.387 287.556 107.478 287.888 107.609 288.188C107.752 288.474 107.947 288.715 108.195 288.91C108.442 289.092 108.767 289.184 109.171 289.184C109.445 289.184 109.698 289.164 109.933 289.125C110.18 289.086 110.389 289.066 110.558 289.066C110.766 289.066 110.903 289.145 110.968 289.301C111.033 289.444 111.066 289.613 111.066 289.809C111.066 290.095 111.001 290.323 110.87 290.492C110.753 290.661 110.59 290.792 110.382 290.883C110.187 290.974 109.952 291.033 109.679 291.059C109.418 291.085 109.145 291.098 108.859 291.098L107.687 291L106.534 291.176C106.352 291.176 106.17 291.221 105.987 291.312C105.805 291.417 105.629 291.469 105.46 291.469C104.874 291.469 104.432 291.319 104.132 291.02C103.833 290.72 103.598 290.316 103.429 289.809H102.921ZM94.7375 281.41C94.7375 282.191 94.7961 282.921 94.9133 283.598C95.0305 284.275 95.2258 284.9 95.4992 285.473C95.7727 286.033 96.1307 286.534 96.5734 286.977C97.0161 287.406 97.563 287.764 98.2141 288.051C98.6047 288.246 98.9953 288.448 99.3859 288.656C99.7766 288.865 100.213 288.969 100.695 288.969C100.799 288.969 101.007 288.949 101.32 288.91C101.632 288.871 101.951 288.812 102.277 288.734C102.615 288.643 102.921 288.533 103.195 288.402C103.468 288.272 103.624 288.116 103.663 287.934C103.689 287.868 103.702 287.816 103.702 287.777C103.702 287.738 103.702 287.686 103.702 287.621C103.702 287.556 103.696 287.51 103.683 287.484C103.67 287.445 103.663 287.4 103.663 287.348C103.663 287.217 103.696 287.074 103.761 286.918C103.787 286.892 103.833 286.84 103.898 286.762C103.976 286.671 104.047 286.573 104.112 286.469C104.191 286.352 104.256 286.234 104.308 286.117C104.373 285.987 104.405 285.87 104.405 285.766C104.405 285.492 104.366 285.212 104.288 284.926C104.21 284.639 104.171 284.333 104.171 284.008L104.132 283.324C104.132 283.207 104.145 283.09 104.171 282.973C104.197 282.842 104.243 282.738 104.308 282.66V278.461L104.171 278.09L103.859 276.645C103.833 276.527 103.728 276.371 103.546 276.176C103.364 275.967 103.149 275.759 102.902 275.551C102.667 275.342 102.426 275.16 102.179 275.004C101.945 274.835 101.762 274.737 101.632 274.711C101.515 274.737 101.398 274.75 101.28 274.75C101.176 274.75 101.079 274.75 100.987 274.75H98.9953C98.5526 274.75 98.1424 274.867 97.7648 275.102C97.3872 275.336 97.0357 275.648 96.7102 276.039C96.3977 276.417 96.1177 276.846 95.8703 277.328C95.6229 277.81 95.4146 278.298 95.2453 278.793C95.0891 279.288 94.9654 279.77 94.8742 280.238C94.7831 280.694 94.7375 281.085 94.7375 281.41ZM113.877 282.445C113.877 282.38 113.89 282.257 113.916 282.074C113.942 281.879 113.968 281.677 113.994 281.469C114.033 281.247 114.059 281.039 114.072 280.844C114.098 280.648 114.111 280.518 114.111 280.453C114.163 279.828 114.3 279.19 114.521 278.539C114.755 277.888 115.048 277.263 115.4 276.664C115.752 276.052 116.155 275.492 116.611 274.984C117.08 274.477 117.588 274.047 118.134 273.695C118.147 273.669 118.213 273.624 118.33 273.559C118.46 273.493 118.597 273.428 118.74 273.363C118.883 273.298 119.02 273.233 119.15 273.168C119.28 273.103 119.358 273.057 119.384 273.031C119.476 272.992 119.593 272.927 119.736 272.836C119.892 272.732 120.048 272.634 120.205 272.543C120.361 272.439 120.517 272.348 120.673 272.27C120.83 272.191 120.973 272.152 121.103 272.152C121.22 272.152 121.311 272.165 121.377 272.191C121.455 272.217 121.546 272.257 121.65 272.309C121.871 272.283 122.08 272.263 122.275 272.25C122.483 272.224 122.692 272.211 122.9 272.211C123.121 272.211 123.33 272.224 123.525 272.25C123.72 272.263 123.929 272.283 124.15 272.309C124.15 272.309 124.176 272.322 124.228 272.348C124.28 272.361 124.339 272.38 124.404 272.406C124.469 272.432 124.534 272.458 124.599 272.484C124.664 272.51 124.716 272.53 124.755 272.543C124.795 272.556 124.873 272.595 124.99 272.66C125.107 272.712 125.237 272.777 125.38 272.855C125.524 272.934 125.66 273.005 125.791 273.07C125.921 273.122 126.012 273.155 126.064 273.168C126.064 273.181 126.11 273.201 126.201 273.227C126.292 273.253 126.351 273.266 126.377 273.266L127.158 273.695L128.916 275.297C128.968 275.362 129.046 275.538 129.15 275.824C129.267 276.098 129.378 276.404 129.482 276.742C129.599 277.068 129.697 277.38 129.775 277.68C129.866 277.979 129.912 278.174 129.912 278.266C129.912 278.448 129.86 278.598 129.755 278.715C129.651 278.819 129.528 278.91 129.384 278.988C129.241 279.053 129.085 279.105 128.916 279.145C128.759 279.171 128.623 279.19 128.505 279.203H128.427C128.297 279.216 128.082 279.229 127.783 279.242C127.496 279.255 127.19 279.268 126.865 279.281C126.552 279.281 126.253 279.288 125.966 279.301C125.693 279.301 125.504 279.301 125.4 279.301C125.257 279.366 125.127 279.405 125.009 279.418C124.905 279.431 124.795 279.438 124.677 279.438L123.291 279.301C123.03 279.301 122.757 279.346 122.47 279.438C122.197 279.529 121.93 279.574 121.67 279.574C121.5 279.574 121.331 279.516 121.162 279.398C121.005 279.268 120.83 279.203 120.634 279.203C120.608 279.203 120.537 279.236 120.42 279.301C120.315 279.353 120.237 279.379 120.185 279.379L118.701 279.281C118.492 279.281 118.297 279.32 118.115 279.398C117.933 279.477 117.724 279.613 117.49 279.809C117.451 280.147 117.425 280.447 117.412 280.707C117.399 280.954 117.392 281.234 117.392 281.547C117.392 281.82 117.405 282.042 117.431 282.211C117.47 282.38 117.522 282.543 117.588 282.699C117.653 282.842 117.731 282.992 117.822 283.148C117.913 283.292 118.017 283.474 118.134 283.695L118.33 284.066C118.668 284.809 119.104 285.408 119.638 285.863C120.172 286.319 120.862 286.677 121.709 286.938C121.709 287.003 121.8 287.068 121.982 287.133C122.177 287.185 122.392 287.224 122.627 287.25C122.9 287.302 123.213 287.335 123.564 287.348C123.994 287.348 124.436 287.322 124.892 287.27C125.348 287.217 125.791 287.133 126.22 287.016C126.65 286.898 127.054 286.742 127.431 286.547C127.822 286.352 128.154 286.111 128.427 285.824H128.74C128.896 285.824 129 285.85 129.052 285.902C129.117 285.941 129.183 286.065 129.248 286.273C129.209 286.651 129.15 286.99 129.072 287.289C129.007 287.576 128.909 287.836 128.779 288.07C128.662 288.305 128.505 288.526 128.31 288.734C128.115 288.93 127.861 289.132 127.548 289.34C127.444 289.418 127.347 289.477 127.255 289.516C127.164 289.542 127.08 289.568 127.002 289.594C126.923 289.62 126.839 289.659 126.748 289.711C126.67 289.763 126.578 289.854 126.474 289.984L124.384 291.039L124.15 291L122.685 291.234C121.591 291.234 120.608 291.078 119.736 290.766C118.864 290.453 118.082 290.01 117.392 289.438C116.715 288.852 116.123 288.155 115.615 287.348C115.12 286.54 114.697 285.648 114.345 284.672C114.228 284.32 114.157 283.962 114.13 283.598C114.104 283.22 114.02 282.836 113.877 282.445ZM117.724 277.113C117.724 277.178 117.731 277.276 117.744 277.406C117.77 277.536 117.802 277.667 117.841 277.797C117.88 277.927 117.926 278.044 117.978 278.148C118.03 278.253 118.082 278.311 118.134 278.324H118.74L121.338 277.914L122.998 278.051C123.284 278.051 123.538 278.025 123.759 277.973C123.994 277.921 124.248 277.862 124.521 277.797C124.768 277.758 124.977 277.725 125.146 277.699C125.328 277.66 125.472 277.595 125.576 277.504C125.693 277.413 125.778 277.296 125.83 277.152C125.882 276.996 125.908 276.781 125.908 276.508C125.908 276.052 125.784 275.655 125.537 275.316C125.289 274.978 124.977 274.698 124.599 274.477C124.235 274.242 123.831 274.073 123.388 273.969C122.959 273.852 122.555 273.793 122.177 273.793C122.086 273.793 121.956 273.819 121.787 273.871C121.617 273.91 121.422 273.969 121.201 274.047C120.992 274.112 120.771 274.19 120.537 274.281C120.315 274.359 120.107 274.451 119.912 274.555C119.729 274.646 119.567 274.737 119.423 274.828C119.28 274.906 119.189 274.978 119.15 275.043L118.74 275.922C118.662 276.013 118.564 276.098 118.447 276.176C118.33 276.254 118.213 276.339 118.095 276.43C117.991 276.521 117.9 276.625 117.822 276.742C117.757 276.846 117.724 276.97 117.724 277.113ZM133.836 282.445C133.836 282.38 133.849 282.257 133.875 282.074C133.901 281.879 133.927 281.677 133.953 281.469C133.992 281.247 134.018 281.039 134.031 280.844C134.057 280.648 134.07 280.518 134.07 280.453C134.122 279.828 134.259 279.19 134.48 278.539C134.715 277.888 135.008 277.263 135.359 276.664C135.711 276.052 136.115 275.492 136.57 274.984C137.039 274.477 137.547 274.047 138.094 273.695C138.107 273.669 138.172 273.624 138.289 273.559C138.419 273.493 138.556 273.428 138.699 273.363C138.842 273.298 138.979 273.233 139.109 273.168C139.24 273.103 139.318 273.057 139.344 273.031C139.435 272.992 139.552 272.927 139.695 272.836C139.852 272.732 140.008 272.634 140.164 272.543C140.32 272.439 140.477 272.348 140.633 272.27C140.789 272.191 140.932 272.152 141.062 272.152C141.18 272.152 141.271 272.165 141.336 272.191C141.414 272.217 141.505 272.257 141.609 272.309C141.831 272.283 142.039 272.263 142.234 272.25C142.443 272.224 142.651 272.211 142.859 272.211C143.081 272.211 143.289 272.224 143.484 272.25C143.68 272.263 143.888 272.283 144.109 272.309C144.109 272.309 144.135 272.322 144.188 272.348C144.24 272.361 144.298 272.38 144.363 272.406C144.428 272.432 144.493 272.458 144.559 272.484C144.624 272.51 144.676 272.53 144.715 272.543C144.754 272.556 144.832 272.595 144.949 272.66C145.066 272.712 145.197 272.777 145.34 272.855C145.483 272.934 145.62 273.005 145.75 273.07C145.88 273.122 145.971 273.155 146.023 273.168C146.023 273.181 146.069 273.201 146.16 273.227C146.251 273.253 146.31 273.266 146.336 273.266L147.117 273.695L148.875 275.297C148.927 275.362 149.005 275.538 149.109 275.824C149.227 276.098 149.337 276.404 149.441 276.742C149.559 277.068 149.656 277.38 149.734 277.68C149.826 277.979 149.871 278.174 149.871 278.266C149.871 278.448 149.819 278.598 149.715 278.715C149.611 278.819 149.487 278.91 149.344 278.988C149.201 279.053 149.044 279.105 148.875 279.145C148.719 279.171 148.582 279.19 148.465 279.203H148.387C148.257 279.216 148.042 279.229 147.742 279.242C147.456 279.255 147.15 279.268 146.824 279.281C146.512 279.281 146.212 279.288 145.926 279.301C145.652 279.301 145.464 279.301 145.359 279.301C145.216 279.366 145.086 279.405 144.969 279.418C144.865 279.431 144.754 279.438 144.637 279.438L143.25 279.301C142.99 279.301 142.716 279.346 142.43 279.438C142.156 279.529 141.889 279.574 141.629 279.574C141.46 279.574 141.29 279.516 141.121 279.398C140.965 279.268 140.789 279.203 140.594 279.203C140.568 279.203 140.496 279.236 140.379 279.301C140.275 279.353 140.197 279.379 140.145 279.379L138.66 279.281C138.452 279.281 138.257 279.32 138.074 279.398C137.892 279.477 137.684 279.613 137.449 279.809C137.41 280.147 137.384 280.447 137.371 280.707C137.358 280.954 137.352 281.234 137.352 281.547C137.352 281.82 137.365 282.042 137.391 282.211C137.43 282.38 137.482 282.543 137.547 282.699C137.612 282.842 137.69 282.992 137.781 283.148C137.872 283.292 137.977 283.474 138.094 283.695L138.289 284.066C138.628 284.809 139.064 285.408 139.598 285.863C140.132 286.319 140.822 286.677 141.668 286.938C141.668 287.003 141.759 287.068 141.941 287.133C142.137 287.185 142.352 287.224 142.586 287.25C142.859 287.302 143.172 287.335 143.523 287.348C143.953 287.348 144.396 287.322 144.852 287.27C145.307 287.217 145.75 287.133 146.18 287.016C146.609 286.898 147.013 286.742 147.391 286.547C147.781 286.352 148.113 286.111 148.387 285.824H148.699C148.855 285.824 148.96 285.85 149.012 285.902C149.077 285.941 149.142 286.065 149.207 286.273C149.168 286.651 149.109 286.99 149.031 287.289C148.966 287.576 148.868 287.836 148.738 288.07C148.621 288.305 148.465 288.526 148.27 288.734C148.074 288.93 147.82 289.132 147.508 289.34C147.404 289.418 147.306 289.477 147.215 289.516C147.124 289.542 147.039 289.568 146.961 289.594C146.883 289.62 146.798 289.659 146.707 289.711C146.629 289.763 146.538 289.854 146.434 289.984L144.344 291.039L144.109 291L142.645 291.234C141.551 291.234 140.568 291.078 139.695 290.766C138.823 290.453 138.042 290.01 137.352 289.438C136.674 288.852 136.082 288.155 135.574 287.348C135.079 286.54 134.656 285.648 134.305 284.672C134.188 284.32 134.116 283.962 134.09 283.598C134.064 283.22 133.979 282.836 133.836 282.445ZM137.684 277.113C137.684 277.178 137.69 277.276 137.703 277.406C137.729 277.536 137.762 277.667 137.801 277.797C137.84 277.927 137.885 278.044 137.938 278.148C137.99 278.253 138.042 278.311 138.094 278.324H138.699L141.297 277.914L142.957 278.051C143.243 278.051 143.497 278.025 143.719 277.973C143.953 277.921 144.207 277.862 144.48 277.797C144.728 277.758 144.936 277.725 145.105 277.699C145.288 277.66 145.431 277.595 145.535 277.504C145.652 277.413 145.737 277.296 145.789 277.152C145.841 276.996 145.867 276.781 145.867 276.508C145.867 276.052 145.743 275.655 145.496 275.316C145.249 274.978 144.936 274.698 144.559 274.477C144.194 274.242 143.79 274.073 143.348 273.969C142.918 273.852 142.514 273.793 142.137 273.793C142.046 273.793 141.915 273.819 141.746 273.871C141.577 273.91 141.382 273.969 141.16 274.047C140.952 274.112 140.73 274.19 140.496 274.281C140.275 274.359 140.066 274.451 139.871 274.555C139.689 274.646 139.526 274.737 139.383 274.828C139.24 274.906 139.148 274.978 139.109 275.043L138.699 275.922C138.621 276.013 138.523 276.098 138.406 276.176C138.289 276.254 138.172 276.339 138.055 276.43C137.951 276.521 137.859 276.625 137.781 276.742C137.716 276.846 137.684 276.97 137.684 277.113ZM153.737 289.809C153.737 289.704 153.802 289.633 153.932 289.594C154.075 289.542 154.179 289.483 154.245 289.418C154.388 289.262 154.551 289.151 154.733 289.086C154.928 289.021 155.065 288.969 155.143 288.93C155.247 288.865 155.319 288.786 155.358 288.695C155.397 288.591 155.488 288.513 155.631 288.461L156.1 288.305C156.178 288.305 156.243 288.246 156.295 288.129C156.347 288.012 156.38 287.947 156.393 287.934C156.38 287.868 156.373 287.758 156.373 287.602C156.373 287.445 156.373 287.296 156.373 287.152C156.373 286.97 156.373 286.807 156.373 286.664C156.373 286.508 156.38 286.378 156.393 286.273L156.51 285.688V282.68C156.51 282.654 156.517 282.595 156.53 282.504C156.543 282.413 156.556 282.315 156.569 282.211C156.582 282.107 156.595 282.009 156.608 281.918C156.621 281.827 156.634 281.768 156.647 281.742V281.605C156.634 281.527 156.621 281.41 156.608 281.254C156.595 281.085 156.582 280.922 156.569 280.766C156.556 280.596 156.543 280.447 156.53 280.316C156.517 280.186 156.51 280.108 156.51 280.082C156.497 280.043 156.484 279.978 156.471 279.887C156.458 279.796 156.445 279.698 156.432 279.594C156.419 279.49 156.406 279.392 156.393 279.301C156.393 279.21 156.393 279.145 156.393 279.105C156.354 278.923 156.289 278.747 156.198 278.578C156.107 278.409 156.002 278.253 155.885 278.109C155.768 277.953 155.644 277.803 155.514 277.66C155.384 277.504 155.26 277.354 155.143 277.211C155.13 277.211 155.084 277.165 155.006 277.074C154.928 276.97 154.889 276.905 154.889 276.879L153.737 275.805L154.674 274.848C154.7 274.835 154.752 274.809 154.83 274.77C154.922 274.73 155.013 274.691 155.104 274.652C155.208 274.6 155.306 274.555 155.397 274.516C155.501 274.477 155.579 274.451 155.631 274.438C155.657 274.411 155.709 274.392 155.787 274.379C155.879 274.353 155.97 274.333 156.061 274.32C156.165 274.307 156.256 274.301 156.334 274.301C156.426 274.288 156.484 274.281 156.51 274.281C156.758 274.203 156.979 274.099 157.174 273.969C157.383 273.826 157.584 273.689 157.78 273.559C157.975 273.415 158.17 273.292 158.366 273.188C158.574 273.083 158.808 273.031 159.069 273.031H159.381C159.394 273.044 159.466 273.116 159.596 273.246C159.726 273.363 159.824 273.448 159.889 273.5C159.98 273.643 160.026 273.826 160.026 274.047C160.026 274.255 160.032 274.464 160.045 274.672C160.058 274.867 160.104 275.036 160.182 275.18C160.26 275.323 160.429 275.395 160.69 275.395C160.729 275.395 160.768 275.395 160.807 275.395C160.859 275.395 160.885 275.382 160.885 275.355C160.937 275.342 161.009 275.316 161.1 275.277C161.191 275.225 161.282 275.167 161.373 275.102C161.478 275.036 161.569 274.971 161.647 274.906C161.738 274.841 161.803 274.789 161.842 274.75L162.643 274.145C162.669 274.118 162.754 274.06 162.897 273.969C163.04 273.865 163.138 273.786 163.19 273.734C163.203 273.734 163.255 273.734 163.346 273.734C163.437 273.721 163.528 273.715 163.62 273.715C163.724 273.702 163.821 273.689 163.912 273.676C164.004 273.663 164.069 273.65 164.108 273.637C164.121 273.637 164.16 273.624 164.225 273.598C164.303 273.572 164.381 273.546 164.459 273.52C164.551 273.493 164.629 273.467 164.694 273.441C164.759 273.415 164.798 273.402 164.811 273.402H165.026C165.325 273.402 165.566 273.493 165.748 273.676C165.944 273.858 166.12 274.06 166.276 274.281C166.367 274.398 166.419 274.568 166.432 274.789C166.458 274.997 166.504 275.154 166.569 275.258C166.569 275.297 166.588 275.336 166.627 275.375L166.705 275.453C166.705 276.078 166.614 276.638 166.432 277.133C166.263 277.615 165.97 278.005 165.553 278.305C165.436 278.331 165.299 278.357 165.143 278.383C164.987 278.396 164.857 278.402 164.752 278.402C164.479 278.402 164.277 278.389 164.147 278.363C164.017 278.324 163.919 278.272 163.854 278.207C163.789 278.142 163.73 278.057 163.678 277.953C163.639 277.849 163.567 277.725 163.463 277.582C163.372 277.465 163.261 277.374 163.131 277.309C163.014 277.23 162.897 277.178 162.78 277.152C162.662 277.113 162.552 277.087 162.448 277.074C162.357 277.061 162.298 277.055 162.272 277.055L161.432 276.918L160.729 277.113L160.495 277.426C160.429 277.439 160.338 277.504 160.221 277.621C160.104 277.725 159.987 277.849 159.87 277.992C159.765 278.122 159.674 278.266 159.596 278.422C159.518 278.565 159.479 278.682 159.479 278.773L159.381 280.18L159.479 280.727V281.742C159.479 281.768 159.485 281.846 159.498 281.977C159.524 282.094 159.551 282.185 159.577 282.25L159.44 284.008L159.577 284.672C159.577 284.763 159.551 284.854 159.498 284.945C159.459 285.036 159.44 285.154 159.44 285.297L159.577 285.961L159.44 286.684C159.44 286.697 159.44 286.716 159.44 286.742C159.44 286.768 159.453 286.781 159.479 286.781C159.492 286.859 159.531 286.97 159.596 287.113C159.674 287.257 159.752 287.406 159.83 287.562C159.922 287.719 160 287.868 160.065 288.012C160.143 288.142 160.195 288.24 160.221 288.305C160.221 288.318 160.234 288.344 160.26 288.383C160.286 288.422 160.319 288.441 160.358 288.441C160.475 288.507 160.586 288.591 160.69 288.695C160.807 288.799 160.944 288.878 161.1 288.93C161.191 288.969 161.308 289.008 161.452 289.047C161.595 289.073 161.745 289.105 161.901 289.145C162.07 289.184 162.233 289.229 162.389 289.281C162.558 289.333 162.715 289.398 162.858 289.477C162.936 289.581 163.008 289.704 163.073 289.848C163.151 289.991 163.19 290.147 163.19 290.316C163.19 290.46 163.164 290.564 163.112 290.629C163.073 290.694 163.008 290.759 162.916 290.824C162.838 290.876 162.708 290.902 162.526 290.902L161.901 290.961C161.679 290.987 161.478 291 161.295 291C161.126 291 160.983 291 160.866 291C160.761 291 160.644 290.987 160.514 290.961C160.397 290.922 160.267 290.902 160.123 290.902C159.759 290.902 159.414 290.948 159.088 291.039C158.763 291.143 158.431 291.195 158.092 291.195L157.213 290.902L155.963 291.195H155.631L155.358 291C155.332 291 155.26 290.993 155.143 290.98C155.026 290.954 154.857 290.928 154.635 290.902C154.583 290.902 154.531 290.876 154.479 290.824C154.44 290.811 154.375 290.792 154.284 290.766C154.205 290.74 154.075 290.681 153.893 290.59C153.789 290.447 153.737 290.31 153.737 290.18V290.121V289.809ZM170.298 288.227C170.298 287.445 170.467 286.853 170.805 286.449C171.144 286.033 171.723 285.824 172.544 285.824C172.817 285.824 173.058 285.87 173.266 285.961C173.475 286.052 173.69 286.143 173.911 286.234C174.197 286.378 174.412 286.514 174.555 286.645C174.712 286.775 174.822 286.924 174.887 287.094C174.966 287.25 175.011 287.432 175.024 287.641C175.037 287.849 175.044 288.103 175.044 288.402V289.555C175.018 289.659 174.94 289.796 174.809 289.965C174.692 290.121 174.549 290.277 174.38 290.434C174.223 290.59 174.061 290.727 173.891 290.844C173.722 290.948 173.579 291 173.462 291C173.006 290.909 172.583 290.805 172.192 290.688C171.815 290.57 171.483 290.414 171.196 290.219C170.923 290.023 170.701 289.77 170.532 289.457C170.376 289.132 170.298 288.721 170.298 288.227Z" fill="#292929"/>
<defs>
<clipPath id="clip0_833_454">
<rect width="205" height="234" fill="white" transform="matrix(-1 0 0 1 205 0)"/>
</clipPath>
</defs>
</svg>
